<svg xmlns="http://www.w3.org/2000/svg" xmlns:xlink="http://www.w3.org/1999/xlink" width="512" height="512" viewBox="0 0 512 512"><defs><radialGradient id="a" cx="0.5" cy="0.5" r="0.332" gradientTransform="matrix(0.471, 0.882, -3.75, 2.001, 2.139, -0.942)" gradientUnits="objectBoundingBox"><stop offset="0" stop-color="#f7e175"/><stop offset="0.333" stop-color="#b8802d"/><stop offset="1" stop-color="#f7e175"/></radialGradient><radialGradient id="b" cx="0.737" cy="0.88" r="1.297" gradientTransform="matrix(0.62, 0.785, -1.532, 1.209, 1.628, -0.763)" gradientUnits="objectBoundingBox"><stop offset="0" stop-color="#f2ce5c"/><stop offset="0.403" stop-color="#b07320"/><stop offset="0.438" stop-color="#b07320"/><stop offset="1" stop-color="#f2ce5c"/></radialGradient><linearGradient id="c" x1="0.618" y1="0.139" x2="0.276" y2="1.123" gradientUnits="objectBoundingBox"><stop offset="0" stop-color="#c28c31"/><stop offset="1" stop-color="#fbe05f"/></linearGradient><filter id="d" x="434.862" y="132.415" width="20.329" height="19.682" filterUnits="userSpaceOnUse"><feOffset dx="-0.5" dy="1" input="SourceAlpha"/><feGaussianBlur stdDeviation="0.25" result="e"/><feFlood flood-color="#fff"/><feComposite operator="in" in2="e"/><feComposite in="SourceGraphic"/></filter><filter id="g" x="450.872" y="167.474" width="23.915" height="23.269" filterUnits="userSpaceOnUse"><feOffset dx="-0.5" dy="1" input="SourceAlpha"/><feGaussianBlur stdDeviation="0.25" result="h"/><feFlood flood-color="#fff"/><feComposite operator="in" in2="h"/><feComposite in="SourceGraphic"/></filter><filter id="j" x="460.011" y="206.707" width="27.502" height="25.959" filterUnits="userSpaceOnUse"><feOffset dx="-0.5" dy="1" input="SourceAlpha"/><feGaussianBlur stdDeviation="0.25" result="k"/><feFlood flood-color="#fff"/><feComposite operator="in" in2="k"/><feComposite in="SourceGraphic"/></filter><filter id="m" x="458.242" y="248.166" width="31.985" height="29.545" filterUnits="userSpaceOnUse"><feOffset dx="-0.5" dy="1" input="SourceAlpha"/><feGaussianBlur stdDeviation="0.25" result="n"/><feFlood flood-color="#fff"/><feComposite operator="in" in2="n"/><feComposite in="SourceGraphic"/></filter><filter id="p" x="449.001" y="292.075" width="37.675" height="34.088" filterUnits="userSpaceOnUse"><feOffset dx="-0.5" dy="1" input="SourceAlpha"/><feGaussianBlur stdDeviation="0.75" result="q"/><feFlood flood-color="#fff"/><feComposite operator="in" in2="q"/><feComposite in="SourceGraphic"/></filter><filter id="s" x="432.621" y="339.027" width="40.365" height="36.778" filterUnits="userSpaceOnUse"><feOffset dx="-0.5" dy="1" input="SourceAlpha"/><feGaussianBlur stdDeviation="0.75" result="t"/><feFlood flood-color="#fff"/><feComposite operator="in" in2="t"/><feComposite in="SourceGraphic"/></filter><linearGradient id="u" x1="0.382" y1="0.139" x2="0.724" y2="1.123" xlink:href="#c"/><filter id="v" x="57.624" y="132.415" width="20.329" height="19.682" filterUnits="userSpaceOnUse"><feOffset dx="-0.5" dy="1" input="SourceAlpha"/><feGaussianBlur stdDeviation="0.25" result="w"/><feFlood flood-color="#fff"/><feComposite operator="in" in2="w"/><feComposite in="SourceGraphic"/></filter><filter id="y" x="38.026" y="167.474" width="23.916" height="23.269" filterUnits="userSpaceOnUse"><feOffset dx="-0.5" dy="1" input="SourceAlpha"/><feGaussianBlur stdDeviation="0.25" result="z"/><feFlood flood-color="#fff"/><feComposite operator="in" in2="z"/><feComposite in="SourceGraphic"/></filter><filter id="ab" x="25.301" y="206.707" width="27.502" height="25.959" filterUnits="userSpaceOnUse"><feOffset dx="-0.5" dy="1" input="SourceAlpha"/><feGaussianBlur stdDeviation="0.25" result="ac"/><feFlood flood-color="#fff"/><feComposite operator="in" in2="ac"/><feComposite in="SourceGraphic"/></filter><filter id="ae" x="22.587" y="248.166" width="31.985" height="29.545" filterUnits="userSpaceOnUse"><feOffset dx="-0.5" dy="1" input="SourceAlpha"/><feGaussianBlur stdDeviation="0.25" result="af"/><feFlood flood-color="#fff"/><feComposite operator="in" in2="af"/><feComposite in="SourceGraphic"/></filter><filter id="ah" x="26.139" y="292.075" width="37.675" height="34.088" filterUnits="userSpaceOnUse"><feOffset dx="-0.5" dy="1" input="SourceAlpha"/><feGaussianBlur stdDeviation="0.75" result="ai"/><feFlood flood-color="#fff"/><feComposite operator="in" in2="ai"/><feComposite in="SourceGraphic"/></filter><filter id="ak" x="39.828" y="339.027" width="40.365" height="36.778" filterUnits="userSpaceOnUse"><feOffset dx="-0.5" dy="1" input="SourceAlpha"/><feGaussianBlur stdDeviation="0.75" result="al"/><feFlood flood-color="#fff"/><feComposite operator="in" in2="al"/><feComposite in="SourceGraphic"/></filter><linearGradient id="am" x1="0.243" y1="0.253" x2="0.929" y2="0.711" gradientUnits="objectBoundingBox"><stop offset="0" stop-color="#fadf5d"/><stop offset="1" stop-color="#d49a27"/></linearGradient><filter id="an" x="107.152" y="177.832" width="287.619" height="237.852" filterUnits="userSpaceOnUse"><feOffset dy="2" input="SourceAlpha"/><feGaussianBlur stdDeviation="2" result="ao"/><feFlood flood-color="#8d5a00"/><feComposite operator="in" in2="ao"/><feComposite in="SourceGraphic"/></filter><linearGradient id="ap" x1="0.798" y1="0.439" x2="0.052" y2="0.582" gradientUnits="objectBoundingBox"><stop offset="0" stop-color="#fde462"/><stop offset="1" stop-color="#d69c29"/></linearGradient><filter id="aq" x="122.618" y="112.299" width="287.619" height="237.852" filterUnits="userSpaceOnUse"><feOffset dy="2" input="SourceAlpha"/><feGaussianBlur stdDeviation="2" result="ar"/><feFlood flood-color="#8d5a00"/><feComposite operator="in" in2="ar"/><feComposite in="SourceGraphic"/></filter><filter id="as" x="231.532" y="222.753" width="59.707" height="74.911" filterUnits="userSpaceOnUse"><feOffset dy="2" input="SourceAlpha"/><feGaussianBlur stdDeviation="2" result="at"/><feFlood flood-color="#8d5a00"/><feComposite operator="in" in2="at"/><feComposite in="SourceGraphic"/></filter></defs><g transform="translate(-1271 -576)"><g transform="translate(1271 576)" stroke="#9d5a00" stroke-width="4" fill="url(#a)"><circle cx="256" cy="256" r="256" stroke="none"/><circle cx="256" cy="256" r="254" fill="none"/></g><g transform="translate(1339 644)" stroke="#9d5a00" stroke-width="4" fill="url(#b)"><circle cx="188" cy="188" r="188" stroke="none"/><circle cx="188" cy="188" r="186" fill="none"/></g><g transform="translate(1706.371 708.415)"><g transform="matrix(1, 0, 0, 1, -435.37, -132.42)" filter="url(#d)"><g transform="translate(436.11 132.42)" fill="url(#c)"><path d="M 14.52756690979004 16.9604320526123 L 9.641437530517578 13.59315967559814 L 9.414457321166992 13.43672943115234 L 9.187477111816406 13.59315967559814 L 4.301347255706787 16.9604320526123 L 5.98972749710083 11.26551914215088 L 6.067887306213379 11.0018892288208 L 5.849747180938721 10.83448886871338 L 1.140381693840027 7.22046422958374 L 7.07108736038208 7.068619251251221 L 7.346387386322021 7.061569213867188 L 7.438047409057617 6.80186939239502 L 9.414457321166992 1.201882839202881 L 11.39086723327637 6.80186939239502 L 11.48252773284912 7.061569213867188 L 11.75782775878906 7.068619251251221 L 17.68853378295898 7.22046422958374 L 12.97916698455811 10.83448886871338 L 12.76102733612061 11.0018892288208 L 12.83918762207031 11.26551914215088 L 14.52756690979004 16.9604320526123 Z" stroke="none"/><path d="M 9.414457321166992 2.40374755859375 L 7.815237045288086 6.934999465942383 L 7.631937026977539 7.454389572143555 L 7.081327438354492 7.468489646911621 L 2.280765533447266 7.591399192810059 L 6.093267440795898 10.5171594619751 L 6.529547691345215 10.85195922851563 L 6.373227119445801 11.37920951843262 L 5.006687164306641 15.98855400085449 L 8.96049690246582 13.26378917694092 L 9.414457321166992 12.95094871520996 L 9.868417739868164 13.26378917694092 L 13.82222747802734 15.98855400085449 L 12.45568752288818 11.37920951843262 L 12.29936790466309 10.85195922851563 L 12.73564720153809 10.5171594619751 L 16.54814910888672 7.591399192810059 L 11.74758720397949 7.468489646911621 L 11.19697761535645 7.454389572143555 L 11.0136775970459 6.934999465942383 L 9.414457321166992 2.40374755859375 M 9.414457321166992 0 L 11.76806735992432 6.66874885559082 L 18.82891654968262 6.849529266357422 L 13.22268676757813 11.15181922912598 L 15.23290729522705 17.93229866027832 L 9.414457321166992 13.92251968383789 L 3.596007347106934 17.93229866027832 L 5.606226921081543 11.15181922912598 L -1.9073486328125e-06 6.849529266357422 L 7.060847282409668 6.66874885559082 L 9.414457321166992 0 Z" stroke="none" fill="#9f6400"/></g></g><g transform="matrix(1, 0, 0, 1, -435.37, -132.42)" filter="url(#g)"><g transform="translate(452.12 167.47)" fill="url(#c)"><path d="M 17.43037796020508 20.54265022277832 L 11.43589782714844 16.37850952148438 L 11.20768737792969 16.21998023986816 L 10.97947692871094 16.37850952148438 L 4.984998226165771 20.54265022277832 L 7.05783748626709 13.4950590133667 L 7.134917259216309 13.23295974731445 L 6.918827533721924 13.06579971313477 L 1.133211016654968 8.590329170227051 L 8.41608715057373 8.402369499206543 L 8.69206714630127 8.39523983001709 L 8.783297538757324 8.134679794311523 L 11.20768737792969 1.210434198379517 L 13.63207721710205 8.134679794311523 L 13.72330760955811 8.39523983001709 L 13.99928760528564 8.402369499206543 L 21.28216552734375 8.590329170227051 L 15.49655723571777 13.06579971313477 L 15.28046703338623 13.23295974731445 L 15.35754776000977 13.4950590133667 L 17.43037796020508 20.54265022277832 Z" stroke="none"/><path d="M 11.20768737792969 2.420879364013672 L 9.16082763671875 8.26686954498291 L 8.978367805480957 8.787989616394043 L 8.426407814025879 8.802228927612305 L 2.266412734985352 8.961209297180176 L 7.163567543029785 12.74940967559814 L 7.595757484436035 13.08372974395752 L 7.441576957702637 13.60791969299316 L 5.689023971557617 19.56654739379883 L 10.75127696990967 16.04998970031738 L 11.20768737792969 15.73293876647949 L 11.66409778594971 16.04998970031738 L 16.72635269165039 19.56654930114746 L 14.9738073348999 13.60791969299316 L 14.81962776184082 13.08372974395752 L 15.25181770324707 12.74940967559814 L 20.14896583557129 8.961209297180176 L 13.9889669418335 8.802228927612305 L 13.43700695037842 8.787989616394043 L 13.25454711914063 8.26686954498291 L 11.20768737792969 2.420879364013672 M 11.20768737792969 0 L 14.00960731506348 8.002499580383301 L 22.41537666320801 8.219439506530762 L 15.74129676818848 13.38218975067139 L 18.13441848754883 21.51875877380371 L 11.20768737792969 16.7070198059082 L 4.28095817565918 21.51875877380371 L 6.674087524414063 13.38218975067139 L -1.9073486328125e-06 8.219439506530762 L 8.405767440795898 8.002499580383301 L 11.20768737792969 0 Z" stroke="none" fill="#9f6400"/></g></g><g transform="matrix(1, 0, 0, 1, -435.37, -132.42)" filter="url(#j)"><g transform="translate(461.26 206.71)" fill="url(#c)"><path d="M 20.3267822265625 23.24854469299316 L 13.22440624237061 18.46365165710449 L 13.00091648101807 18.31308174133301 L 12.77742671966553 18.46365165710449 L 5.675050735473633 23.24854469299316 L 8.124716758728027 15.17105197906494 L 8.205996513366699 14.90305233001709 L 7.981976509094238 14.73499202728271 L 1.161146402359009 9.617920875549316 L 9.760696411132813 9.402682304382324 L 10.03406620025635 9.395842552185059 L 10.12691688537598 9.138642311096191 L 13.00091648101807 1.177951693534851 L 15.87491607666016 9.138642311096191 L 15.96776676177979 9.395842552185059 L 16.24113655090332 9.402682304382324 L 24.8406867980957 9.617920875549316 L 18.01985740661621 14.73499202728271 L 17.79583740234375 14.90305233001709 L 17.87711715698242 15.17105197906494 L 20.3267822265625 23.24854469299316 Z" stroke="none"/><path d="M 13.00091648101807 2.355901718139648 L 10.50314617156982 9.274472236633301 L 10.31743621826172 9.788882255554199 L 9.770706176757813 9.802562713623047 L 2.322305679321289 9.988988876342773 L 8.222026824951172 14.41503238677979 L 8.67005729675293 14.75114250183105 L 8.50750732421875 15.28713226318359 L 6.384206771850586 22.28847122192383 L 12.55392646789551 18.13191223144531 L 13.00091648101807 17.83078193664551 L 13.44790649414063 18.13191223144531 L 19.61762619018555 22.28847122192383 L 17.49432754516602 15.28713226318359 L 17.3317756652832 14.75114250183105 L 17.77980613708496 14.41503238677979 L 23.67952728271484 9.988988876342773 L 16.23112678527832 9.802562713623047 L 15.68439674377441 9.788882255554199 L 15.49868679046631 9.274472236633301 L 13.00091648101807 2.355901718139648 M 13.00091648101807 1.9073486328125e-06 L 16.25114631652832 9.002812385559082 L 26.0018367767334 9.246862411499023 L 18.25989532470703 15.05496215820313 L 21.03592681884766 24.20860290527344 L 13.00091648101807 18.7953929901123 L 4.965906143188477 24.20860290527344 L 7.741935729980469 15.05496215820313 L -3.814697265625e-06 9.246862411499023 L 9.750686645507813 9.002812385559082 L 13.00091648101807 1.9073486328125e-06 Z" stroke="none" fill="#9f6400"/></g></g><g transform="matrix(1, 0, 0, 1, -435.37, -132.42)" filter="url(#m)"><g transform="translate(459.49 248.17)" fill="url(#c)"><path d="M 23.95002555847168 26.84558868408203 L 15.46273231506348 21.24602127075195 L 15.24245262145996 21.1006908416748 L 15.02217292785645 21.24602127075195 L 6.534879207611084 26.84558868408203 L 9.458852767944336 17.40365219116211 L 9.543102264404297 17.131591796875 L 9.313582420349121 16.96297073364258 L 1.180811643600464 10.98794841766357 L 11.44164276123047 10.73644161224365 L 11.7131929397583 10.72978115081787 L 11.80715274810791 10.47492122650146 L 15.24245262145996 1.156417489051819 L 18.67775344848633 10.47492122650146 L 18.77171325683594 10.72978115081787 L 19.04326248168945 10.73644161224365 L 29.3040943145752 10.98794841766357 L 21.17132186889648 16.96297073364258 L 20.94180297851563 17.131591796875 L 21.02605247497559 17.40365219116211 L 23.95002555847168 26.84558868408203 Z" stroke="none"/><path d="M 15.24245262145996 2.312833786010742 L 12.18246269226074 10.61328125 L 11.99454307556152 11.12301063537598 L 11.45144271850586 11.13632202148438 L 2.36163330078125 11.3591251373291 L 9.550413131713867 16.64061164855957 L 10.00945281982422 16.97786140441895 L 9.840951919555664 17.52198028564453 L 7.247655868530273 25.89611625671387 L 14.80189228057861 20.91214179992676 L 15.24245262145996 20.6214714050293 L 15.68301296234131 20.91214179992676 L 23.23724937438965 25.89611625671387 L 20.64395141601563 17.52198028564453 L 20.4754524230957 16.97786140441895 L 20.93449401855469 16.64061164855957 L 28.12327194213867 11.3591251373291 L 19.03346252441406 11.13632202148438 L 18.4903621673584 11.12301063537598 L 18.30244255065918 10.61328125 L 15.24245262145996 2.312833786010742 M 15.24245262145996 1.9073486328125e-06 L 19.05306243896484 10.33656120300293 L 30.48490333557129 10.61677169799805 L 21.40815353393555 17.28532028198242 L 24.66280364990234 27.7950611114502 L 15.24245262145996 21.57990264892578 L 5.822103500366211 27.7950611114502 L 9.076751708984375 17.28532028198242 L 1.9073486328125e-06 10.61677169799805 L 11.43184280395508 10.33656120300293 L 15.24245262145996 1.9073486328125e-06 Z" stroke="none" fill="#9f6400"/></g></g><g transform="matrix(1, 0, 0, 1, -435.37, -132.42)" filter="url(#p)"><g transform="translate(451.75 293.32)" fill="url(#c)"><path d="M 26.12221336364746 28.64966583251953 L 16.80427551269531 22.63605690002441 L 16.58737564086914 22.4960765838623 L 16.37047576904297 22.63605690002441 L 7.05253791809082 28.64966583251953 L 10.25899600982666 18.52123641967773 L 10.34648609161377 18.2448673248291 L 10.11108589172363 18.07568740844727 L 1.202054023742676 11.67302417755127 L 12.4501256942749 11.40332698822021 L 12.71973609924316 11.3968563079834 L 12.81483554840088 11.14449691772461 L 16.58737564086914 1.134242296218872 L 20.35992622375488 11.14449691772461 L 20.45502471923828 11.3968563079834 L 20.72463607788086 11.40332698822021 L 31.97269821166992 11.67302417755127 L 23.06366539001465 18.07568740844727 L 22.82826614379883 18.2448673248291 L 22.91575622558594 18.52123641967773 L 26.12221336364746 28.64966583251953 Z" stroke="none"/><path d="M 16.58737564086914 2.268487930297852 L 13.18912506103516 11.28555679321289 L 12.99891471862793 11.7902774810791 L 12.4597053527832 11.80320739746094 L 2.404088973999023 12.04431343078613 L 10.34451484680176 17.7508659362793 L 10.8153247833252 18.08922576904297 L 10.64033508300781 18.6419563293457 L 7.769243240356445 27.71105003356934 L 16.15356636047363 22.29997634887695 L 16.58737564086914 22.02000617980957 L 17.02118492126465 22.29997634887695 L 25.40550804138184 27.71105003356934 L 22.53441619873047 18.6419563293457 L 22.35942459106445 18.08922576904297 L 22.83022689819336 17.7508659362793 L 30.77065277099609 12.04430389404297 L 20.71503448486328 11.80320739746094 L 20.17582702636719 11.7902774810791 L 19.98561477661133 11.28555679321289 L 16.58737564086914 2.268487930297852 M 16.58737564086914 -3.814697265625e-06 L 20.73421478271484 11.00343704223633 L 33.17475509643555 11.30171585083008 L 23.29710578918457 18.4005069732666 L 26.83893585205078 29.58829689025879 L 16.58737564086914 22.97214698791504 L 6.3358154296875 29.58829689025879 L 9.877645492553711 18.4005069732666 L -3.814697265625e-06 11.30172729492188 L 12.44052505493164 11.00343704223633 L 16.58737564086914 -3.814697265625e-06 Z" stroke="none" fill="#9f6400"/></g></g><g transform="matrix(1, 0, 0, 1, -435.37, -132.42)" filter="url(#s)"><g transform="translate(435.37 340.28)" fill="url(#c)"><path d="M 28.29998397827148 31.33509063720703 L 18.15058898925781 24.72533798217773 L 17.93229866027832 24.58317947387695 L 17.71400833129883 24.72533798217773 L 7.564614295959473 31.33509063720703 L 11.06018829345703 20.19301795959473 L 11.14633846282959 19.91841888427734 L 10.91335868835449 19.74946784973145 L 1.193251729011536 12.7003927230835 L 13.458909034729 12.4036283493042 L 13.72930908203125 12.3970890045166 L 13.82394886016846 12.14369869232178 L 17.93229866027832 1.143287897109985 L 22.04065895080566 12.14369869232178 L 22.13529777526855 12.3970890045166 L 22.40569877624512 12.4036283493042 L 34.67134475708008 12.7003927230835 L 24.95123863220215 19.74946784973145 L 24.71825790405273 19.91841888427734 L 24.80440902709961 20.19301795959473 L 28.29998397827148 31.33509063720703 Z" stroke="none"/><path d="M 17.93229866027832 2.286575317382813 L 14.19865798950195 12.28364944458008 L 14.0093879699707 12.79042816162109 L 13.46856880187988 12.80351829528809 L 2.386531829833984 13.07164573669434 L 11.14818954467773 19.4256477355957 L 11.61413955688477 19.76356887817383 L 11.44184875488281 20.31274795532227 L 8.279691696166992 30.39205932617188 L 17.49571800231934 24.39015960693359 L 17.93229866027832 24.10583877563477 L 18.3688793182373 24.39015960693359 L 27.58490562438965 30.39205932617188 L 24.42274856567383 20.31274795532227 L 24.25045776367188 19.76356887817383 L 24.71640777587891 19.4256477355957 L 33.47806549072266 13.07164573669434 L 22.39602851867676 12.80351829528809 L 21.85520935058594 12.79042816162109 L 21.66593933105469 12.28364944458008 L 17.93229866027832 2.286575317382813 M 17.93229866027832 0 L 22.41537857055664 12.00374794006348 L 35.86459732055664 12.32914924621582 L 25.18606948852539 20.07327842712402 L 29.01506805419922 32.27813720703125 L 17.93229866027832 25.06052780151367 L 6.849529266357422 32.27813720703125 L 10.67852783203125 20.07327842712402 L 0 12.32914924621582 L 13.44921875 12.00374794006348 L 17.93229866027832 0 Z" stroke="none" fill="#9f6400"/></g></g></g><text transform="matrix(0.848, -0.53, 0.53, 0.848, 1392.335, 683.381)" fill="#7c3b05" font-size="65" font-family="Exotic350BT-DemiBold, Exotc350 DmBd BT" font-weight="300"><tspan x="0" y="0">S</tspan></text><text transform="matrix(0.94, -0.342, 0.342, 0.94, 1442.014, 652.799)" fill="#7c3b05" font-size="65" font-family="Exotic350BT-DemiBold, Exotc350 DmBd BT" font-weight="300"><tspan x="0" y="0">a</tspan></text><text transform="translate(1489.823 639.468) rotate(-8)" fill="#7c3b05" font-size="65" font-family="Exotic350BT-DemiBold, Exotc350 DmBd BT" font-weight="300"><tspan x="0" y="0">t</tspan></text><text transform="translate(1539.917 637.18) rotate(8)" fill="#7c3b05" font-size="65" font-family="Exotic350BT-DemiBold, Exotc350 DmBd BT" font-weight="300"><tspan x="0" y="0">h</tspan></text><text transform="matrix(0.94, 0.342, -0.342, 0.94, 1594.474, 644.786)" fill="#7c3b05" font-size="65" font-family="Exotic350BT-DemiBold, Exotc350 DmBd BT" font-weight="300"><tspan x="0" y="0">i</tspan></text><text transform="matrix(0.848, 0.53, -0.53, 0.848, 1631.07, 661.29)" fill="#7c3b05" font-size="65" font-family="Exotic350BT-DemiBold, Exotc350 DmBd BT" font-weight="300"><tspan x="0" y="0">o</tspan></text><text transform="matrix(0.695, 0.719, -0.719, 0.695, 1352.937, 986.798)" fill="#7c3b05" font-size="40" font-family="SegoeUI-Semibold, Segoe UI" font-weight="600"><tspan x="0" y="0">M</tspan></text><text transform="matrix(0.819, 0.574, -0.574, 0.819, 1383.565, 1015.353)" fill="#7c3b05" font-size="40" font-family="SegoeUI-Semibold, Segoe UI" font-weight="600"><tspan x="0" y="0">A</tspan></text><text transform="translate(1412.747 1035.388) rotate(25)" fill="#7c3b05" font-size="40" font-family="SegoeUI-Semibold, Segoe UI" font-weight="600"><tspan x="0" y="0">D</tspan></text><text transform="matrix(0.951, 0.309, -0.309, 0.951, 1446.545, 1049.659)" fill="#7c3b05" font-size="40" font-family="SegoeUI-Semibold, Segoe UI" font-weight="600"><tspan x="0" y="0">E</tspan></text><text transform="matrix(0.996, 0.087, -0.087, 0.996, 1499.059, 1063.303)" fill="#7c3b05" font-size="40" font-family="SegoeUI-Semibold, Segoe UI" font-weight="600"><tspan x="0" y="0">I</tspan></text><text transform="matrix(0.996, -0.087, 0.087, 0.996, 1520.375, 1066.065)" fill="#7c3b05" font-size="40" font-family="SegoeUI-Semibold, Segoe UI" font-weight="600"><tspan x="0" y="0">N</tspan></text><text transform="matrix(0.951, -0.309, 0.309, 0.951, 1591.726, 1058.356)" fill="#7c3b05" font-size="40" font-family="SegoeUI-Semibold, Segoe UI" font-weight="600"><tspan x="0" y="0">I</tspan></text><text transform="translate(1608.226 1052.659) rotate(-24)" fill="#7c3b05" font-size="40" font-family="SegoeUI-Semibold, Segoe UI" font-weight="600"><tspan x="0" y="0">N</tspan></text><text transform="translate(1643.672 1036.448) rotate(-32)" fill="#7c3b05" font-size="40" font-family="SegoeUI-Semibold, Segoe UI" font-weight="600"><tspan x="0" y="0">D</tspan></text><text transform="matrix(0.777, -0.629, 0.629, 0.777, 1675.345, 1018.226)" fill="#7c3b05" font-size="40" font-family="SegoeUI-Semibold, Segoe UI" font-weight="600"><tspan x="0" y="0">I</tspan></text><text transform="matrix(0.695, -0.719, 0.719, 0.695, 1689.639, 1007.854)" fill="#7c3b05" font-size="40" font-family="SegoeUI-Semibold, Segoe UI" font-weight="600"><tspan x="0" y="0">A</tspan></text><g transform="translate(1294.837 708.415)"><g transform="matrix(1, 0, 0, 1, -23.84, -132.42)" filter="url(#v)"><g transform="translate(58.87 132.42)" fill="url(#u)"><path d="M 4.301360130310059 16.96043395996094 L 5.989749431610107 11.26551818847656 L 6.067909240722656 11.00188827514648 L 5.849769115447998 10.83448791503906 L 1.140386819839478 7.220463275909424 L 7.071109294891357 7.068618297576904 L 7.346409320831299 7.061568260192871 L 7.438069343566895 6.801878452301025 L 9.414498329162598 1.201885104179382 L 11.39091968536377 6.801878452301025 L 11.48257923126221 7.061568260192871 L 11.75787925720215 7.068618297576904 L 17.6886100769043 7.220463275909424 L 12.97921943664551 10.83448791503906 L 12.76107883453369 11.00188827514648 L 12.8392391204834 11.26551818847656 L 14.52763652801514 16.9604320526123 L 9.6414794921875 13.59315872192383 L 9.414499282836914 13.43672847747803 L 9.187519073486328 13.59315872192383 L 4.301360130310059 16.96043395996094 Z" stroke="none"/><path d="M 9.414497375488281 2.403733253479004 L 7.815258979797363 6.934998512268066 L 7.631949424743652 7.454388618469238 L 7.08134937286377 7.468488693237305 L 2.280776977539063 7.591398239135742 L 6.09329891204834 10.51715850830078 L 6.529579162597656 10.85195827484131 L 6.373259544372559 11.37921905517578 L 5.006708145141602 15.98855400085449 L 8.960538864135742 13.2637882232666 L 9.414499282836914 12.95094871520996 L 9.868459701538086 13.2637882232666 L 13.82229042053223 15.98855400085449 L 12.45573997497559 11.37921905517578 L 12.29941940307617 10.85195827484131 L 12.73569869995117 10.51715850830078 L 16.54822158813477 7.591398239135742 L 11.74763870239258 7.468488693237305 L 11.1970386505127 7.454388618469238 L 11.01372909545898 6.934998512268066 L 9.414497375488281 2.403733253479004 M 9.414499282836914 -1.9073486328125e-06 L 11.76811981201172 6.668747901916504 L 18.82899856567383 6.849528312683105 L 13.22273921966553 11.15181827545166 L 15.23297882080078 17.93229866027832 L 9.414499282836914 13.92251777648926 L 3.596019744873047 17.93229866027832 L 5.606259346008301 11.15181827545166 L 0 6.849528312683105 L 7.060869216918945 6.668747901916504 L 9.414499282836914 -1.9073486328125e-06 Z" stroke="none" fill="#9f6400"/></g></g><g transform="matrix(1, 0, 0, 1, -23.84, -132.42)" filter="url(#y)"><g transform="translate(39.28 167.47)" fill="url(#u)"><path d="M 17.43045806884766 20.54265213012695 L 11.43594837188721 16.37850761413574 L 11.20773792266846 16.21997833251953 L 10.97952747344971 16.37850761413574 L 4.985019683837891 20.54265022277832 L 7.057868003845215 13.49505805969238 L 7.134947776794434 13.23295879364014 L 6.918858051300049 13.06579875946045 L 1.133215546607971 8.590328216552734 L 8.416117668151855 8.402368545532227 L 8.692097663879395 8.395238876342773 L 8.783328056335449 8.134678840637207 L 11.20773792266846 1.210425615310669 L 13.63214778900146 8.134678840637207 L 13.72337818145752 8.395238876342773 L 13.99935817718506 8.402368545532227 L 21.28226089477539 8.590328216552734 L 15.49662780761719 13.06579875946045 L 15.28053760528564 13.23295879364014 L 15.35761833190918 13.49505805969238 L 17.43045806884766 20.54265213012695 Z" stroke="none"/><path d="M 11.20773792266846 2.420862197875977 L 9.160858154296875 8.266868591308594 L 8.978387832641602 8.787988662719727 L 8.426438331604004 8.802227973937988 L 2.26641845703125 8.961208343505859 L 7.16358757019043 12.74940872192383 L 7.59577751159668 13.0837287902832 L 7.441597938537598 13.60791778564453 L 5.689043045043945 19.56655311584473 L 10.75132751464844 16.04998779296875 L 11.20773792266846 15.73293876647949 L 11.66414833068848 16.04998779296875 L 16.72643280029297 19.56655311584473 L 14.97387790679932 13.60791778564453 L 14.81969833374023 13.0837287902832 L 15.25188827514648 12.74940872192383 L 20.14905738830566 8.961208343505859 L 13.98903751373291 8.802227973937988 L 13.43708801269531 8.787988662719727 L 13.25461769104004 8.266868591308594 L 11.20773792266846 2.420862197875977 M 11.20773792266846 -1.9073486328125e-06 L 14.00967788696289 8.002498626708984 L 22.41547775268555 8.219438552856445 L 15.74136734008789 13.38218879699707 L 18.13449859619141 21.51875877380371 L 11.20773792266846 16.70701789855957 L 4.280977249145508 21.51875877380371 L 6.674107551574707 13.38218879699707 L -1.9073486328125e-06 8.219438552856445 L 8.405797958374023 8.002498626708984 L 11.20773792266846 -1.9073486328125e-06 Z" stroke="none" fill="#9f6400"/></g></g><g transform="matrix(1, 0, 0, 1, -23.84, -132.42)" filter="url(#ab)"><g transform="translate(26.55 206.71)" fill="url(#u)"><path d="M 20.32687187194824 23.24854469299316 L 13.22446537017822 18.46364974975586 L 13.00097560882568 18.31307983398438 L 12.77748584747314 18.46364974975586 L 5.675080299377441 23.24854278564453 L 8.124755859375 15.17104911804199 L 8.206035614013672 14.90304946899414 L 7.982015609741211 14.73498916625977 L 1.161159038543701 9.617918014526367 L 9.760746002197266 9.402679443359375 L 10.03410530090332 9.395839691162109 L 10.12696552276611 9.138639450073242 L 13.0009765625 1.17794394493103 L 15.87499523162842 9.138639450073242 L 15.96785545349121 9.395839691162109 L 16.24121475219727 9.402679443359375 L 24.84080123901367 9.617918014526367 L 18.01994514465332 14.73498916625977 L 17.79592514038086 14.90304946899414 L 17.87720489501953 15.17104911804199 L 20.32687187194824 23.24854469299316 Z" stroke="none"/><path d="M 13.00097465515137 2.355888366699219 L 10.5031852722168 9.274469375610352 L 10.31747531890869 9.78887939453125 L 9.770746231079102 9.802559852600098 L 2.32232666015625 9.988985061645508 L 8.222064971923828 14.41501998901367 L 8.670095443725586 14.75113964080811 L 8.507545471191406 15.28713989257813 L 6.384241104125977 22.2884693145752 L 12.55398559570313 18.13190841674805 L 13.00097560882568 17.83078002929688 L 13.44796562194824 18.13190841674805 L 19.61771774291992 22.28847503662109 L 17.49441528320313 15.28712940216064 L 17.33186531066895 14.75113964080811 L 17.7798957824707 14.41501998901367 L 23.67961883544922 9.988985061645508 L 16.2311954498291 9.802559852600098 L 15.6844654083252 9.78887939453125 L 15.49875545501709 9.274469375610352 L 13.00097465515137 2.355888366699219 M 13.00097560882568 0 L 16.25121688842773 9.002809524536133 L 26.00194549560547 9.246859550476074 L 18.25998497009277 15.05495929718018 L 21.03601455688477 24.20859909057617 L 13.00097560882568 18.79538917541504 L 4.965934753417969 24.20859909057617 L 7.741975784301758 15.05495929718018 L -3.814697265625e-06 9.246859550476074 L 9.750724792480469 9.002809524536133 L 13.00097560882568 0 Z" stroke="none" fill="#9f6400"/></g></g><g transform="matrix(1, 0, 0, 1, -23.84, -132.42)" filter="url(#ae)"><g transform="translate(23.84 248.17)" fill="url(#u)"><path d="M 23.95014381408691 26.84559059143066 L 15.46280193328857 21.24601936340332 L 15.24252223968506 21.10068893432617 L 15.02224254608154 21.24601936340332 L 6.534899711608887 26.84559059143066 L 9.458891868591309 17.40365028381348 L 9.543142318725586 17.13158988952637 L 9.31362247467041 16.96296882629395 L 1.18081533908844 10.98794651031494 L 11.44169235229492 10.73643970489502 L 11.71324253082275 10.72977924346924 L 11.80720233917236 10.47491931915283 L 15.24252223968506 1.156410217285156 L 18.67784309387207 10.47491931915283 L 18.77180290222168 10.72977924346924 L 19.0433521270752 10.73643970489502 L 29.30422973632813 10.98794651031494 L 21.17142295837402 16.96296882629395 L 20.94190216064453 17.13158988952637 L 21.02615165710449 17.40365028381348 L 23.95014381408691 26.84559059143066 Z" stroke="none"/><path d="M 15.24252223968506 2.312820434570313 L 12.1825122833252 10.61327934265137 L 11.99459266662598 11.12300872802734 L 11.45149230957031 11.13632011413574 L 2.361640930175781 11.35912322998047 L 9.550453186035156 16.64060974121094 L 10.00949287414551 16.97785949707031 L 9.840982437133789 17.52198028564453 L 7.247665405273438 25.89612770080566 L 14.80196189880371 20.91213989257813 L 15.24252223968506 20.62147903442383 L 15.68308258056641 20.91213989257813 L 23.23737907409668 25.89612770080566 L 20.64406204223633 17.52198028564453 L 20.47555160522461 16.97785949707031 L 20.93459320068359 16.64060974121094 L 28.12340354919434 11.35912322998047 L 19.0335521697998 11.13632011413574 L 18.49045181274414 11.12300872802734 L 18.30253219604492 10.61327934265137 L 15.24252223968506 2.312820434570313 M 15.24252223968506 0 L 19.05315208435059 10.3365592956543 L 30.48504257202148 10.61676979064941 L 21.40825271606445 17.28532028198242 L 24.66292190551758 27.79505920410156 L 15.24252223968506 21.57989883422852 L 5.822122573852539 27.79505920410156 L 9.076791763305664 17.28532028198242 L 1.9073486328125e-06 10.61676979064941 L 11.43189239501953 10.3365592956543 L 15.24252223968506 0 Z" stroke="none" fill="#9f6400"/></g></g><g transform="matrix(1, 0, 0, 1, -23.84, -132.42)" filter="url(#ah)"><g transform="translate(28.89 293.32)" fill="url(#u)"><path d="M 7.05256462097168 28.64965629577637 L 10.25903224945068 18.52123260498047 L 10.34652233123779 18.24486351013184 L 10.11112213134766 18.07568359375 L 1.202063322067261 11.673020362854 L 12.45018196105957 11.40332317352295 L 12.71979236602783 11.39685249328613 L 12.81489181518555 11.14449310302734 L 16.58745193481445 1.134244084358215 L 20.36001205444336 11.14449310302734 L 20.45511245727539 11.39685249328613 L 20.72472190856934 11.40332317352295 L 31.97283935546875 11.673020362854 L 23.06377220153809 18.07568359375 L 22.82837104797363 18.24486351013184 L 22.91586112976074 18.52123260498047 L 26.12233734130859 28.64965438842773 L 16.80435180664063 22.63605308532715 L 16.58745193481445 22.49607276916504 L 16.37055206298828 22.63605308532715 L 7.05256462097168 28.64965629577637 Z" stroke="none"/><path d="M 16.58745193481445 2.268495559692383 L 13.1891918182373 11.28556251525879 L 12.99898147583008 11.79027366638184 L 12.45977210998535 11.80320358276367 L 2.404102325439453 12.04430961608887 L 10.34455108642578 17.75086212158203 L 10.81536102294922 18.0892219543457 L 10.64037132263184 18.64195251464844 L 7.769266128540039 27.71105194091797 L 16.15365219116211 22.29997253417969 L 16.58745193481445 22.0200023651123 L 17.0212516784668 22.29997253417969 L 25.40563583374023 27.71105003356934 L 22.53452301025391 18.64195251464844 L 22.35953140258789 18.0892219543457 L 22.83034133911133 17.75086212158203 L 30.77079963684082 12.04430961608887 L 20.71513175964355 11.80320358276367 L 20.17592239379883 11.79027366638184 L 19.9857120513916 11.28556251525879 L 16.58745193481445 2.268495559692383 M 16.58745193481445 1.9073486328125e-06 L 20.73431205749512 11.00343322753906 L 33.17490005493164 11.30172348022461 L 23.29721069335938 18.40050315856934 L 26.83906173706055 29.58828353881836 L 16.58745193481445 22.97214317321777 L 6.335842132568359 29.58828353881836 L 9.877681732177734 18.40050315856934 L 3.814697265625e-06 11.30172348022461 L 12.44059181213379 11.00343322753906 L 16.58745193481445 1.9073486328125e-06 Z" stroke="none" fill="#9f6400"/></g></g><g transform="matrix(1, 0, 0, 1, -23.84, -132.42)" filter="url(#ak)"><g transform="translate(42.58 340.28)" fill="url(#u)"><path d="M 28.30011177062988 31.33509254455566 L 18.15066909790039 24.7253360748291 L 17.9323787689209 24.58317756652832 L 17.71408843994141 24.7253360748291 L 7.564645290374756 31.33509254455566 L 11.0602388381958 20.19301605224609 L 11.14638900756836 19.91841697692871 L 10.91340923309326 19.74946594238281 L 1.193256378173828 12.70039939880371 L 13.45895862579346 12.40362644195557 L 13.7293586730957 12.39708709716797 L 13.82399845123291 12.14369678497314 L 17.9323787689209 1.143280386924744 L 22.04075813293457 12.14369678497314 L 22.13539886474609 12.39708709716797 L 22.40579795837402 12.40362644195557 L 34.67150115966797 12.70039081573486 L 24.95134925842285 19.74946594238281 L 24.71836853027344 19.91841697692871 L 24.80451965332031 20.19301605224609 L 28.30011177062988 31.33509254455566 Z" stroke="none"/><path d="M 17.9323787689209 2.286563873291016 L 14.1987190246582 12.28364753723145 L 14.00944900512695 12.79042625427246 L 13.4686279296875 12.80351638793945 L 2.386539459228516 13.0716438293457 L 11.14823913574219 19.4256477355957 L 11.61418914794922 19.76355743408203 L 11.44189834594727 20.31274795532227 L 8.27972412109375 30.39206123352051 L 17.49579811096191 24.39015579223633 L 17.9323787689209 24.10583686828613 L 18.36895942687988 24.39015579223633 L 27.58503341674805 30.39206123352051 L 24.42285919189453 20.31274795532227 L 24.25056838989258 19.76355743408203 L 24.71651840209961 19.4256477355957 L 33.47821807861328 13.0716438293457 L 22.3961296081543 12.80351638793945 L 21.85530853271484 12.79042625427246 L 21.66603851318359 12.28364753723145 L 17.9323787689209 2.286563873291016 M 17.9323787689209 -3.814697265625e-06 L 22.41547775268555 12.00374603271484 L 35.8647575378418 12.32914733886719 L 25.18618011474609 20.07327651977539 L 29.01519775390625 32.27813720703125 L 17.9323787689209 25.06052780151367 L 6.849557876586914 32.27813720703125 L 10.67857933044434 20.07327651977539 L 0 12.32914733886719 L 13.44927787780762 12.00374603271484 L 17.9323787689209 -3.814697265625e-06 Z" stroke="none" fill="#9f6400"/></g></g></g><g transform="translate(1384.152 692.299)"><g transform="matrix(1, 0, 0, 1, -113.15, -116.3)" filter="url(#an)"><path d="M7012.782,2230.326c-.006,0,40.283-8.171,67.628,19.477.152,0,24.306,25.977,25.064,51.651-.151.608,3.647,30.877-8.809,60.842,0,.19-11.85,31.522-40.562,48.954-.151-.19-17.471,15.457-67.753,13.634,0,0-41.253-2.136-71.84-36.959.146.117-33.368-35.652-34.08-94.994a149.929,149.929,0,0,0,6.152,54.941c.118.234,9.349,29.828,29.331,52.118,0-.029,24.452,29.653,62.9,42.244.117.088,42.781,17.388,93.671,0,.152-.07,45.8-12.678,69.2-55.214,0,0,24.415-39.582,8.618-86.781,0-.4-11.834-40.979-55.634-64.48C7096.508,2235.561,7052.132,2213.79,7012.782,2230.326Z" transform="translate(-6768.85 -2042.3)" fill="url(#am)"/></g><g transform="matrix(1, 0, 0, 1, -113.15, -116.3)" filter="url(#aq)"><path d="M130.781,6.2c-.006,0,40.283-8.171,67.628,19.477.152,0,24.306,25.977,25.066,51.651-.152.608,3.646,30.877-8.811,60.842,0,.19-11.849,31.522-40.561,48.954-.152-.19-17.47,15.457-67.754,13.634,0,0-41.252-2.136-71.84-36.96.146.117-33.367-35.652-34.08-94.993a149.966,149.966,0,0,0,6.153,54.941c.117.234,9.349,29.828,29.331,52.118,0-.029,24.452,29.653,62.9,42.244.117.088,42.781,17.388,93.672,0,.152-.07,45.8-12.679,69.2-55.215,0,0,24.416-39.581,8.617-86.781,0-.4-11.833-40.979-55.634-64.48C214.508,11.431,170.132-10.339,130.781,6.2Z" transform="translate(404.24 342.15) rotate(180)" fill="url(#ap)"/></g><g transform="matrix(1, 0, 0, 1, -113.15, -116.3)" filter="url(#as)"><path d="M28.951,3.8a3,3,0,0,1,5.009,0L59.844,43.056a3,3,0,0,1-2.5,4.651H5.571a3,3,0,0,1-2.5-4.651Z" transform="translate(285.24 226.75) rotate(90)" fill="#e4b83f"/></g></g></g></svg>