<svg xmlns="http://www.w3.org/2000/svg" xmlns:xlink="http://www.w3.org/1999/xlink" width="1000" height="1000" viewBox="0 0 1000 1000"><defs><linearGradient id="a" x1="0.207" y1="0.853" x2="0.907" y2="0.416" gradientUnits="objectBoundingBox"><stop offset="0" stop-color="#c23764"/><stop offset="1" stop-color="#1e2671"/></linearGradient><linearGradient id="c" x1="0.718" y1="0.458" x2="0.076" y2="0.974" xlink:href="#a"/></defs><g transform="translate(-0.467 0.019)"><circle cx="500" cy="500" r="500" transform="translate(0.467 -0.019)" fill="#fff"/><g transform="translate(26.66 27.58)"><path d="M7304.6,2244.2s130.193-26.469,218.544,63.088c.5,0,78.569,84.155,81.03,167.312-.5,1.973,11.756,100.024-28.509,197.083,0,.624-38.274,102.11-131.032,158.582-.5-.615-56.458,50.072-218.939,44.162,0,0-133.34-6.918-232.157-119.724.446.38-107.84-115.489-110.152-307.707,0-.027-9.2,85.662,19.886,177.974.4.747,30.221,96.614,94.781,168.825,0-.1,79.01,96.051,203.276,136.842.337.282,138.268,56.328,302.718,0,.473-.235,147.977-41.081,223.583-178.866,0,0,78.906-128.211,27.858-281.108,0-1.271-38.275-132.736-179.822-208.863C7575.189,2261.153,7431.8,2190.64,7304.6,2244.2Z" transform="translate(-6882 -2014.977)" fill="url(#a)"/><path d="M422.615,20.072C422.6,20.078,552.789-6.4,641.153,83.164c.491,0,78.545,84.148,81,167.312-.491,1.969,11.783,100.018-28.472,197.084,0,.615-38.291,102.11-131.072,158.577-.491-.615-56.454,50.07-218.944,44.165,0,0-133.306-6.92-232.149-119.723.472.378-107.826-115.487-110.129-307.711-.008-.022-9.2,85.663,19.882,177.97.377.757,30.209,96.621,94.783,168.826,0-.095,79.017,96.053,203.254,136.84.378.284,138.247,56.326,302.7,0,.491-.228,148.011-41.07,223.611-178.856,0,0,78.9-128.216,27.845-281.109,0-1.28-38.239-132.743-179.781-208.869C693.176,37.03,549.777-33.491,422.615,20.072Z" transform="translate(940.753 731.601) rotate(180)" fill="url(#a)"/><path d="M93.545,12.662a10,10,0,0,1,16.7,0l83.322,126.372a10,10,0,0,1-8.349,15.5H18.571a10,10,0,0,1-8.349-15.5Z" transform="translate(556.34 356.276) rotate(90)" fill="url(#c)"/></g></g></svg>