<svg xmlns="http://www.w3.org/2000/svg" width="512.01" height="512" viewBox="0 0 512.01 512"><path d="M361.281,576.317a25.973,25.973,0,0,1-19.8-9.08,26.3,26.3,0,0,0-39.747,0,25.981,25.981,0,0,1-19.8,9.08,26.513,26.513,0,0,1-14.591-4.339,26.042,26.042,0,0,1-10.028-12.512l-.178-.463a26.279,26.279,0,0,0-37.3-13.544l-.021.011a26,26,0,0,1-22.5,1.434,26.61,26.61,0,0,1-8.33-5.31,26.009,26.009,0,0,1-8.222-18.494l-.031-1.281a26.268,26.268,0,0,0-30.291-25.363l-.546.084a27.176,27.176,0,0,1-4.119.318,25.815,25.815,0,0,1-12.13-3.01,26.723,26.723,0,0,1-9.093-7.93,25.991,25.991,0,0,1-3.627-23.636l.623-1.881a26.3,26.3,0,0,0-19.686-34.028l-1.312-.269a26.7,26.7,0,0,1-6.655-2.3,25.791,25.791,0,0,1-5.528-3.756,26.575,26.575,0,0,1-8.6-23.449,25.8,25.8,0,0,1,1.789-6.439,26.7,26.7,0,0,1,3.589-6.058l1.4-1.786a26.3,26.3,0,0,0-6.817-38.586l-1.713-1.064a26.7,26.7,0,0,1-5.438-4.452,25.8,25.8,0,0,1-3.884-5.424,26.571,26.571,0,0,1,0-24.938,25.8,25.8,0,0,1,3.884-5.424,26.693,26.693,0,0,1,5.438-4.452l1.714-1.064a26.3,26.3,0,0,0,6.817-38.586l-1.4-1.786a26.7,26.7,0,0,1-3.589-6.058,25.8,25.8,0,0,1-1.789-6.439,26.575,26.575,0,0,1,8.6-23.45,25.8,25.8,0,0,1,5.528-3.756,26.7,26.7,0,0,1,6.655-2.3l1.312-.269a26.3,26.3,0,0,0,19.686-34.028l-.623-1.881a25.99,25.99,0,0,1,3.628-23.635,26.722,26.722,0,0,1,9.092-7.931,25.811,25.811,0,0,1,12.129-3.01,27.177,27.177,0,0,1,4.118.318l.547.084a26.706,26.706,0,0,0,4.047.311,26.44,26.44,0,0,0,26.244-25.674l.031-1.281A26.008,26.008,0,0,1,189,99.041a26.617,26.617,0,0,1,8.33-5.31,26,26,0,0,1,22.495,1.433l.021.012a26.279,26.279,0,0,0,37.3-13.544l.178-.464a26.041,26.041,0,0,1,10.029-12.511,26.517,26.517,0,0,1,14.591-4.34,25.975,25.975,0,0,1,19.8,9.08,26.3,26.3,0,0,0,39.746,0,25.98,25.98,0,0,1,19.8-9.08,26.518,26.518,0,0,1,14.591,4.339A26.041,26.041,0,0,1,385.9,81.168l.178.464a26.279,26.279,0,0,0,37.3,13.544l.021-.012a26,26,0,0,1,22.5-1.433,26.614,26.614,0,0,1,8.33,5.31,26.008,26.008,0,0,1,8.222,18.494l.031,1.28a26.44,26.44,0,0,0,26.244,25.675,26.706,26.706,0,0,0,4.047-.311l.546-.084a27.18,27.18,0,0,1,4.119-.318,25.815,25.815,0,0,1,12.13,3.01,26.721,26.721,0,0,1,9.093,7.93,25.991,25.991,0,0,1,3.627,23.636l-.623,1.881a26.3,26.3,0,0,0,19.686,34.028l1.312.269a26.693,26.693,0,0,1,6.655,2.3,25.8,25.8,0,0,1,5.528,3.756,26.573,26.573,0,0,1,8.6,23.45,25.79,25.79,0,0,1-1.789,6.439,26.694,26.694,0,0,1-3.589,6.058l-1.4,1.786a26.3,26.3,0,0,0,6.818,38.586l1.713,1.064a26.691,26.691,0,0,1,5.438,4.452,25.8,25.8,0,0,1,3.884,5.424,26.57,26.57,0,0,1,0,24.938,25.794,25.794,0,0,1-3.884,5.424,26.691,26.691,0,0,1-5.438,4.452l-1.713,1.064a26.3,26.3,0,0,0-6.818,38.586l1.4,1.786a26.7,26.7,0,0,1,3.589,6.058,25.793,25.793,0,0,1,1.789,6.439,26.573,26.573,0,0,1-8.6,23.45,25.794,25.794,0,0,1-5.528,3.756,26.693,26.693,0,0,1-6.655,2.3l-1.312.269A26.3,26.3,0,0,0,521.656,460.4l.623,1.882a25.989,25.989,0,0,1-3.627,23.633,26.724,26.724,0,0,1-9.093,7.932,25.816,25.816,0,0,1-12.13,3.011,27.17,27.17,0,0,1-4.119-.318l-.546-.084a26.267,26.267,0,0,0-30.291,25.363l-.031,1.281a26.007,26.007,0,0,1-8.222,18.493,26.622,26.622,0,0,1-8.33,5.31,26,26,0,0,1-22.5-1.433l-.021-.012A26.28,26.28,0,0,0,386.078,559l-.178.463a26.04,26.04,0,0,1-10.029,12.511A26.52,26.52,0,0,1,361.281,576.317ZM200.493,297.039a22.644,22.644,0,0,0-16.136,6.737,23.729,23.729,0,0,0-.276,33.155l85.076,87.931a22.726,22.726,0,0,0,16.443,7.01,2.643,2.643,0,0,1,.438.024,23.049,23.049,0,0,0,16.628-7.691l157.076-175.86a23.779,23.779,0,0,0-1.566-33.133,22.8,22.8,0,0,0-32.564,1.594l-140.68,157.5-67.964-70.249A22.8,22.8,0,0,0,200.493,297.039Z" transform="translate(-65.607 -64.317)" fill="#1e2671"/></svg>